<?xml version="1.0" encoding="UTF-8"?>
<!DOCTYPE svg PUBLIC "-//W3C//DTD SVG 1.1//EN" "http://www.w3.org/Graphics/SVG/1.1/DTD/svg11.dtd">
<!-- Creator: CorelDRAW X6 -->
<svg xmlns="http://www.w3.org/2000/svg" xml:space="preserve" width="100%" height="100%" version="1.1" style="shape-rendering:geometricPrecision; text-rendering:geometricPrecision; image-rendering:optimizeQuality; fill-rule:evenodd; clip-rule:evenodd"
viewBox="0 0 500 500"
 xmlns:xlink="http://www.w3.org/1999/xlink">
 <defs>
  <style type="text/css">
   <![CDATA[
    .fil0 {fill:#202020}
   ]]>
  </style>
 </defs>
 <g id="Layer_x0020_1">
  <metadata id="CorelCorpID_0Corel-Layer"/>
  <path class="fil0" d="M276 128c11,0 20,9 21,19 92,13 162,64 162,185l-418 0c0,-121 71,-173 162,-185 1,-10 10,-19 21,-19l16 0 0 -20 -32 0c0,-23 19,-41 42,-41 23,0 42,18 42,41l-32 0 0 20 16 0zm-231 235l415 0c11,0 20,9 20,20l0 50 -460 0 0 -45c0,-13 11,-25 25,-25z"/>
 </g>
</svg>
